PathFileType	3	(X/Y/Z)	D:\Vicon Database\Healthy Subjects\S0040\Jan. 30, 2020\Force Plate Walk 6.trc
DataRate	CameraRate	NumFrames	NumMarkers	Units	OrigDataRate	OrigDataStartFrame	OrigNumFrames
100.0	100.0	6	53	mm	100.0	353	350	
Frame#	Time	sternum_cluster1			sternum_cluster2			sternum_cluster3			left_asis			right_asis			left_psis			right_psis			sacrum_cluster1			sacrum_cluster2			sacrum_cluster3			left_lat_femoral_epicondyle			left_anterior_thigh15			left_anterior_thigh25			left_anterior_thigh50			left_lateral_thigh25			left_lateral_thigh50			left_thigh_cluster1			left_thigh_cluster2			left_thigh_cluster3			left_fibular_head			left_tibial_tuberosity			left_anterior_shank30			left_lateral_malleolus			left_shank_cluster1			left_shank_cluster2			left_shank_cluster3			left_heel			left_metatarsal2			left_foot_cluster1			left_foot_cluster2			left_foot_cluster3			right_lat_femoral_epicondyle			right_anterior_thigh15			right_anterior_thigh25			right_anterior_thigh50			right_lateral_thigh25			right_lateral_thigh50			right_thigh_cluster1			right_thigh_cluster2			right_thigh_cluster3			right_fibular_head			right_tibial_tuberosity			right_lateral_distal_shank			right_anterior_shank30			right_lateral_malleolus			right_shank_cluster1			right_shank_cluster2			right_shank_cluster3			right_heel			right_metatarsal2			right_foot_cluster1			right_foot_cluster2			right_foot_cluster3			
		X1	Y1	Z1	X2	Y2	Z2	X3	Y3	Z3	X4	Y4	Z4	X5	Y5	Z5	X6	Y6	Z6	X7	Y7	Z7	X8	Y8	Z8	X9	Y9	Z9	X10	Y10	Z10	X11	Y11	Z11	X12	Y12	Z12	X13	Y13	Z13	X14	Y14	Z14	X15	Y15	Z15	X16	Y16	Z16	X17	Y17	Z17	X18	Y18	Z18	X19	Y19	Z19	X20	Y20	Z20	X21	Y21	Z21	X22	Y22	Z22	X23	Y23	Z23	X24	Y24	Z24	X25	Y25	Z25	X26	Y26	Z26	X27	Y27	Z27	X28	Y28	Z28	X29	Y29	Z29	X30	Y30	Z30	X31	Y31	Z31	X32	Y32	Z32	X33	Y33	Z33	X34	Y34	Z34	X35	Y35	Z35	X36	Y36	Z36	X37	Y37	Z37	X38	Y38	Z38	X39	Y39	Z39	X40	Y40	Z40	X41	Y41	Z41	X42	Y42	Z42	X43	Y43	Z43	X44	Y44	Z44	X45	Y45	Z45	X46	Y46	Z46	X47	Y47	Z47	X48	Y48	Z48	X49	Y49	Z49	X50	Y50	Z50	X51	Y51	Z51	X52	Y52	Z52	X53	Y53	Z53	
353	3.52	2563.1694	1419.9368	-141.56711	2551.0454	1392.4633	-133.39513	2553.7959	1394.7418	-171.3102	2575.2849	1039.1548	-17.41396	2572.8191	1053.5886	-268.29483	2741.375	1060.1713	-73.24334	2743.3433	1060.6622	-191.3531	2750.6121	1116.6372	-138.41656	2756.7813	1091.3285	-150.10205	2758.4136	1085.9669	-110.92039	2764.4084	537.29028	8.958149	2639.1406	576.5415	-31.382839	2598.8584	658.84174	-16.586409	2568.5837	798.85028	-3.666441	2721.5088	680.98975	25.061296	2674.9719	819.69904	48.488144	2692.5342	778.77844	53.356892	2701.9722	750.80151	50.830338	2664.3438	751.22388	57.487331	2801.6611	467.48688	18.553005	2757.739	423.08578	-31.363108	2937.375	241.5737	-43.486897	3049.1372	182.65477	-17.71245	2792.7979	378.04559	-59.884487	2807.5554	355.09238	-50.586243	2816.4922	361.98376	-87.451889	3126.4216	209.24826	-58.503647	2971.7993	57.453968	-54.160679	2976.8042	129.06522	-44.799103	2974.0737	99.661636	-36.055191	2964.6667	101.84217	-73.757675	2468.2136	531.63177	-273.03415	2420.9695	642.46521	-216.23093	2434.7937	721.23578	-218.53876	2479.4346	839.48956	-230.57596	2524.1157	678.56818	-302.43417	2575.7417	816.93719	-333.50024	2563.9268	764.11768	-338.54059	2544.2522	743.33618	-333.43445	2579.8933	729.16058	-328.4722	2458.2195	464.42734	-274.72232	2404.1958	470.00937	-226.92644	2415.97	198.44711	-254.61906	2375.1035	222.25735	-207.60477	2395.844	97.480659	-240.51207	2404.7495	403.50574	-171.2001	2404.0425	375.55237	-162.8847	2380.2031	377.43964	-190.73282	2465.6208	59.55558	-202.36887	2249.9194	89.64576	-198.18575	2311.3354	127.68289	-198.79967	2285.5479	117.57959	-188.99532	2285.4495	119.54539	-226.37796
354	3.53	2548.8208	1421.39	-142.9249	2536.677	1393.9561	-134.81422	2539.0911	1396.3029	-172.75278	2559.394	1040.0177	-19.358385	2556.46	1055.2994	-269.67331	2725.218	1060.1907	-74.813934	2727.2737	1061.6312	-192.95726	2734.6875	1117.2189	-139.63133	2740.9141	1092.0781	-151.55435	2742.5962	1086.3755	-112.42809	2738.8076	534.77161	10.113305	2614.0044	575.32709	-29.105413	2575.6182	659.09497	-15.88911	2549.2976	799.92908	-5.4940305	2698.9426	678.75311	24.764626	2655.3474	818.56641	46.907345	2672.1687	777.66199	52.139786	2680.9624	749.25739	49.662945	2643.4717	750.58759	56.230427	2777.1433	466.3942	20.178066	2733.7148	420.17523	-28.403502	2918.7446	244.67366	-41.539356	3032.4551	190.32863	-16.573917	2769.748	375.84357	-56.978012	2785.2964	353.0267	-47.671841	2793.7583	359.9585	-84.979393	3105.7683	224.34396	-58.308891	2967.3635	58.083096	-53.858654	2964.3569	130.21672	-43.319309	2964.9985	100.26612	-34.793579	2954.6968	102.77824	-72.377975	2454.2192	531.75171	-274.19662	2406.8938	642.59424	-216.35333	2420.343	721.67151	-219.32967	2463.8733	840.36493	-232.3071	2508.7542	679.71405	-304.13974	2559.9502	818.3125	-335.48581	2547.8667	765.37781	-340.40836	2528.5898	744.58179	-335.1572	2564.1304	730.53308	-330.61618	2445.3391	464.30093	-275.68039	2392.2832	469.06348	-226.77057	2409.2917	197.3728	-254.35736	2369.0742	220.32626	-206.25069	2393.7668	96.886162	-239.93927	2395.4319	402.25168	-171.10258	2395.637	374.44327	-163.03046	2370.5256	375.93808	-190.04367	2464.3887	59.727062	-201.67134	2248.1807	85.531715	-197.65474	2308.7322	125.14144	-197.94899	2283.1377	114.30161	-188.28159	2283.01	116.66918	-225.65553
355	3.54	2534.4312	1423.0194	-144.39978	2522.2661	1395.5391	-136.20494	2524.4822	1397.8118	-174.18459	2543.9956	1041.0236	-21.076834	2540.6206	1056.8655	-271.1377	2709.688	1060.3743	-76.095924	2711.5483	1062.7488	-194.36839	2719.0898	1117.9969	-140.74605	2725.2778	1092.8951	-152.75812	2727.1609	1087.0032	-113.70082	2712.6516	532.08087	11.331167	2588.6396	574.44366	-26.301489	2552.3088	659.69501	-14.868674	2530.093	801.35699	-7.0697284	2676.2183	676.51337	24.629337	2635.8486	817.37262	45.523499	2651.9236	776.26843	50.772781	2660.0505	747.90552	48.855495	2622.5938	750.12335	55.576462	2751.5896	465.15054	21.862776	2709.2974	417.58383	-25.187016	2899.4263	247.88591	-40.012005	3014.5784	198.19589	-15.717467	2745.7188	373.33115	-54.174217	2762.5583	351.31085	-44.542103	2769.7612	357.89706	-82.418953	3082.9666	239.47368	-58.293961	2961.1406	59.786751	-52.944973	2951.2473	132.69284	-41.484131	2954.6152	102.97435	-32.685074	2944.1182	104.2123	-70.189095	2440.4241	532.28595	-275.91034	2393.2046	643.25006	-216.88518	2406.3259	722.44238	-220.38878	2448.5364	841.53998	-234.03436	2493.1836	681.09833	-306.49356	2544.3389	819.93866	-337.10574	2532.4202	766.7146	-342.30008	2513.1201	745.84747	-336.8591	2548.6516	732.08881	-332.99567	2433.6948	464.4361	-276.7713	2381.2358	468.25311	-227.35922	2404.3804	196.71707	-254.30173	2364.0691	218.74767	-205.92453	2392.3513	96.383911	-239.75993	2386.3975	401.69305	-171.60316	2387.6003	373.57104	-163.66031	2362.425	374.30011	-190.39497	2464.0957	60.732681	-202.46605	2246.9634	82.827171	-197.42288	2307.0962	123.49786	-197.10716	2281.7332	112.26311	-187.58714	2281.6113	114.8406	-225.0497
356	3.55	2519.9775	1424.6095	-145.98714	2507.7563	1397.2692	-137.6183	2509.9519	1399.5525	-175.60532	2529.0959	1042.1665	-22.426508	2525.0012	1058.4907	-272.44812	2694.7542	1060.8019	-77.246468	2696.3311	1064.0159	-195.56454	2704.0693	1118.9017	-141.5974	2710.219	1093.8053	-153.83102	2712.1912	1087.7449	-114.78791	2686.1357	529.44531	12.146257	2563.0662	574.2124	-23.468349	2528.98	660.87451	-13.572627	2511.1504	803.1792	-8.3319502	2653.2673	674.39746	24.451159	2616.7029	816.31396	44.356674	2631.1687	775.33936	50.205879	2639.1465	746.47986	48.280075	2601.6611	749.65625	54.879475	2725.0886	464.19302	23.089808	2683.5891	415.66913	-22.004967	2879.0103	251.53473	-38.502575	2995.3445	206.59041	-14.626577	2720.7878	371.07706	-51.463501	2738.4778	350.40723	-41.74976	2744.5168	356.05515	-79.742325	3057.9861	254.00737	-58.331814	2952.7029	63.235931	-51.233212	2936.5703	136.1848	-38.560143	2943.3538	106.16041	-30.554886	2931.4673	107.15369	-68.172035	2427.6323	532.78821	-277.60287	2379.9382	644.08435	-218.09209	2392.4568	723.32648	-221.9277	2433.4766	842.93567	-235.49728	2477.9963	682.89972	-308.26675	2528.9885	821.90302	-338.75082	2517.365	768.65161	-344.31549	2498.2261	747.83386	-338.88034	2533.9614	733.98676	-335.37152	2422.8706	464.69247	-278.33188	2370.6123	467.81845	-228.75441	2400.7898	196.55724	-254.73413	2359.6914	217.65543	-206.51576	2391.5581	96.251999	-239.85826	2377.5706	401.20142	-172.69109	2380.1064	372.69049	-165.16966	2354.2458	373.24448	-191.56229	2464.4104	61.43301	-202.86777	2246.231	80.551346	-197.49028	2305.9165	122.25292	-197.02881	2280.7378	110.55421	-187.57181	2280.542	113.39957	-224.88589
357	3.56	2505.7778	1426.2897	-147.1813	2493.4858	1398.9744	-138.79411	2495.5745	1401.1454	-176.74509	2514.8733	1043.2457	-23.763399	2509.717	1060.4039	-273.72806	2680.3413	1061.3922	-78.137375	2681.5439	1065.4916	-196.53098	2689.5474	1119.9436	-142.20921	2695.613	1095.0371	-154.65259	2697.688	1088.5737	-115.6841	2659.1814	527.26508	12.524247	2538.9824	573.92438	-21.549826	2505.6599	662.75226	-12.309015	2492.6375	805.3819	-9.315794	2630.4138	672.50104	24.528175	2597.979	815.50708	43.499767	2611.717	774.1275	49.16972	2618.5222	745.26056	47.692017	2581.311	749.53156	54.368633	2697.7383	463.41403	23.852455	2656.8171	414.04831	-19.785959	2856.9114	255.38412	-36.911076	2974.5449	214.58415	-14.1835	2694.7656	369.26068	-48.736195	2713.5564	349.24292	-39.392849	2718.5381	354.39267	-77.546532	3031.0012	267.35901	-58.228199	2942.6418	68.023682	-49.741463	2920.6694	139.89896	-36.094433	2929.8635	110.37173	-28.535528	2917.0232	110.53626	-65.460815	2415.9861	533.56287	-279.64859	2367.2798	644.63232	-220.40208	2378.9563	723.96906	-224.02159	2419.1777	844.22864	-236.88564	2463.9756	684.97314	-310.2785	2514.3186	824.33063	-340.45621	2503.2175	771.03253	-346.20602	2484.1396	749.84778	-340.39508	2520.0776	736.26312	-337.50046	2413.0315	465.02548	-280.17761	2360.5417	467.44678	-230.94405	2397.6409	196.73981	-255.72676	2355.6934	216.91864	-207.97964	2390.6753	96.196152	-239.90639	2368.5378	401.20792	-174.8575	2371.9668	372.54916	-167.06372	2346.3125	372.41907	-193.82472	2463.4846	61.114006	-202.62555	2245.5459	78.851608	-197.726	2304.8262	120.90464	-197.3324	2279.7253	109.12148	-187.87225	2279.5613	111.88205	-225.2973
358	3.57	2491.5962	1428.1267	-148.21648	2479.3455	1400.7197	-139.80426	2480.9612	1403.0687	-177.71992	2500.646	1044.743	-24.430876	2494.9299	1062.4443	-274.78867	2667.0376	1062.4221	-78.786987	2667.0425	1067.0793	-197.14259	2675.2966	1121.1006	-142.61517	2681.3303	1096.3108	-155.18176	2683.4827	1089.5596	-116.32528	2632.0515	525.68756	12.738491	2511.179	576.12689	-20.090916	2482.136	665.18506	-10.894403	2474.7466	807.79303	-10.022405	2607.6064	671.0636	24.41721	2579.9766	814.93945	42.617188	2592.3594	773.53888	48.506382	2598.02	744.37982	46.640572	2561.2729	749.61951	53.817093	2669.5391	462.83578	24.398663	2630.3054	412.83466	-19.269579	2834.0544	259.41943	-36.124844	2951.9307	222.28032	-13.49492	2668.0925	368.50436	-47.429947	2687.3447	349.00562	-37.774841	2691.9797	353.67999	-76.135681	3004.125	278.39462	-58.409508	2928.967	73.617607	-48.835835	2903.468	143.54927	-35.32486	2914.1465	115.38467	-27.888294	2901.2693	114.52403	-64.744751	2406.082	534.22638	-281.62665	2355.5195	644.62408	-223.78607	2366.1082	724.19153	-226.68549	2405.4907	845.09296	-238.19633	2451.7615	686.81372	-311.91837	2500.4807	826.63837	-341.85907	2490.1704	773.18323	-347.86697	2471.3801	751.81183	-341.78415	2507.3809	738.55328	-339.19565	2404.5601	465.15231	-281.83987	2352.0796	466.8934	-233.56148	2395.1504	196.97415	-256.91422	2352.1333	216.35469	-209.82191	2389.959	96.096214	-240.19601	2360.1545	401.05963	-177.15303	2363.9414	372.45776	-169.3427	2338.7471	371.67978	-196.48047	2463.2522	61.146385	-202.70351	2245.1306	77.442924	-198.00035	2304.2881	120.10345	-197.72925	2279.052	108.19919	-188.14497	2278.9026	110.79774	-225.53893
